<svg version="1.1" id="Layer_1" xmlns="http://www.w3.org/2000/svg" xmlns:xlink="http://www.w3.org/1999/xlink" x="0px" y="0px"
     viewBox="0 0 512 512" style="enable-background:new 0 0 512 512;" xml:space="preserve">
<style type="text/css">
	.st0{fill:none;}
  .st1{fill:#282531;}
  .st2{fill:#BCBEC0;}
  .st3{fill:none;stroke:#282632;stroke-width:2;stroke-miterlimit:10;}
</style>
  <g>
	<g>
		<g>
			<path class="st0" d="M201.26,176.77c-43.72,43.72-43.76,114.57-0.12,158.35l158.53-158.4C315.9,133.01,245,133.02,201.26,176.77z
				"/>
      <path class="st1" d="M201.26,335.24c-0.04-0.04-0.08-0.09-0.12-0.13l-87.36,87.29c0,0,0,0,0,0.01
				c71.37,71.5,177.23,87.55,264.09,48.15c39.01-17.7,47.94-69.24,17.65-99.53l-1.86-1.86c-17.52-17.52-43.99-21.54-66.53-11.23
				C285.78,376.84,235.3,369.28,201.26,335.24z"/>
      <path class="st2" d="M201.26,176.77c43.74-43.75,114.64-43.76,158.41-0.06l84.99-84.92c1.3-1.3,1.3-3.44-0.02-4.73
				c-92.16-89.6-239.52-88.81-330.71,2.38C22,181.38,21.95,330.39,113.78,422.4l87.36-87.29
				C157.5,291.34,157.54,220.49,201.26,176.77z"/>
		</g>
    <path class="st3" d="M62.52,473.62"/>
	</g>
    <path class="st1" d="M337.55,159.51l-24.79,28.92l13.32,13.29l40.79-37.64l77.87-76.83v0c2.57,2.37,2.71,6.38,0.32,8.92
		l-70.8,75.28l-37.53,40.9l13.32,13.29l108.6-115.55c2.04-1.87,5.21-1.73,7.08,0.31c1.76,1.92,1.73,4.87,0.01,6.76L355.39,242.01
		c0,0-0.01,0.01-0.01,0.01l-20.75,20.81c-6.47,6.49-14.73,11.11-23.8,12.48c-10.31,1.56-20.32-0.68-28.67-5.97L135.91,423.9
		c-5.59,5.9-14.9,6.16-20.81,0.57l-4.13-4.81l158.25-163.22c-10.23-16.1-8.36-37.72,5.66-51.78l54.15-49.7
		C329.04,154.97,330.71,155.58,337.55,159.51z"/>
    <circle class="st1" cx="378.46" cy="111.71" r="5.43"/>
    <path class="st1" d="M342.84,153.41l-5.49-5.49c-0.59-0.59-0.59-1.54,0-2.12l21-21c0.59-0.59,1.54-0.59,2.12,0l5.49,5.49
		c0.59,0.59,0.59,1.54,0,2.12l-21,21C344.38,153.99,343.43,153.99,342.84,153.41z"/>
</g>
</svg>
